<?xml version="1.0" standalone="no"?>
<!DOCTYPE svg PUBLIC "-//W3C//DTD SVG 20010904//EN"
 "http://www.w3.org/TR/2001/REC-SVG-20010904/DTD/svg10.dtd">
<svg version="1.0" xmlns="http://www.w3.org/2000/svg"
 width="512.000000pt" height="512.000000pt" viewBox="0 0 512.000000 512.000000"
 preserveAspectRatio="xMidYMid meet">

<g transform="translate(0.000000,512.000000) scale(0.100000,-0.100000)"
fill="#000000" stroke="none">
<path d="M615 4850 c-222 -40 -393 -192 -440 -392 -89 -377 195 -691 600 -665
264 17 452 157 519 386 20 70 21 209 1 286 -46 176 -183 315 -365 370 -65 19
-244 28 -315 15z"/>
<path d="M3613 3425 c-87 -16 -156 -38 -248 -80 -148 -68 -353 -226 -460 -354
l-50 -60 -5 217 -5 217 -512 3 -513 2 0 -1550 0 -1550 512 2 513 3 5 960 5
960 27 62 c57 135 166 256 278 313 198 100 457 66 597 -77 64 -65 115 -168
145 -290 21 -86 22 -105 25 -1010 l4 -923 515 0 515 0 -4 998 c-4 1069 -4
1075 -57 1282 -128 501 -448 804 -922 874 -125 19 -265 19 -365 1z"/>
<path d="M220 1820 l0 -1550 515 0 515 0 0 1550 0 1550 -515 0 -515 0 0 -1550z"/>
</g>
</svg>
